<svg width="840" height="120" viewBox="0 0 840 120" fill="none" xmlns="http://www.w3.org/2000/svg">
<path d="M102.416 37.36H89.6956L87.2556 44H84.2956L94.4956 16.4H97.6556L107.816 44H104.856L102.416 37.36ZM101.576 35.04L96.0556 19.92L90.5356 35.04H101.576ZM99.7756 9.96L91.5756 14.72V12.56L99.7756 7.44V9.96ZM115.109 26.04C115.723 24.68 116.656 23.6267 117.909 22.88C119.189 22.1333 120.749 21.76 122.589 21.76V24.68H121.829C119.803 24.68 118.176 25.2267 116.949 26.32C115.723 27.4133 115.109 29.24 115.109 31.8V44H112.309V22.16H115.109V26.04ZM146.562 31.96C146.562 32.92 146.535 33.6533 146.482 34.16H128.362C128.442 35.8133 128.842 37.2267 129.562 38.4C130.282 39.5733 131.228 40.4667 132.402 41.08C133.575 41.6667 134.855 41.96 136.242 41.96C138.055 41.96 139.575 41.52 140.802 40.64C142.055 39.76 142.882 38.5733 143.282 37.08H146.242C145.708 39.2133 144.562 40.96 142.802 42.32C141.068 43.6533 138.882 44.32 136.242 44.32C134.188 44.32 132.348 43.8667 130.722 42.96C129.095 42.0267 127.815 40.72 126.882 39.04C125.975 37.3333 125.522 35.3467 125.522 33.08C125.522 30.8133 125.975 28.8267 126.882 27.12C127.788 25.4133 129.055 24.1067 130.682 23.2C132.308 22.2933 134.162 21.84 136.242 21.84C138.322 21.84 140.135 22.2933 141.682 23.2C143.255 24.1067 144.455 25.3333 145.282 26.88C146.135 28.4 146.562 30.0933 146.562 31.96ZM143.722 31.88C143.748 30.2533 143.415 28.8667 142.722 27.72C142.055 26.5733 141.135 25.7067 139.962 25.12C138.788 24.5333 137.508 24.24 136.122 24.24C134.042 24.24 132.268 24.9067 130.802 26.24C129.335 27.5733 128.522 29.4533 128.362 31.88H143.722ZM150.404 33.04C150.404 30.8 150.844 28.84 151.724 27.16C152.631 25.4533 153.871 24.1467 155.444 23.24C157.044 22.3067 158.844 21.84 160.844 21.84C162.924 21.84 164.711 22.32 166.204 23.28C167.724 24.24 168.818 25.4667 169.484 26.96V22.16H172.284V44H169.484V39.16C168.791 40.6533 167.684 41.8933 166.164 42.88C164.671 43.84 162.884 44.32 160.804 44.32C158.831 44.32 157.044 43.8533 155.444 42.92C153.871 41.9867 152.631 40.6667 151.724 38.96C150.844 37.2533 150.404 35.28 150.404 33.04ZM169.484 33.08C169.484 31.32 169.124 29.7733 168.404 28.44C167.684 27.1067 166.698 26.08 165.444 25.36C164.218 24.64 162.858 24.28 161.364 24.28C159.818 24.28 158.431 24.6267 157.204 25.32C155.978 26.0133 155.004 27.0267 154.284 28.36C153.591 29.6667 153.244 31.2267 153.244 33.04C153.244 34.8267 153.591 36.4 154.284 37.76C155.004 39.0933 155.978 40.12 157.204 40.84C158.431 41.5333 159.818 41.88 161.364 41.88C162.858 41.88 164.218 41.52 165.444 40.8C166.698 40.08 167.684 39.0533 168.404 37.72C169.124 36.3867 169.484 34.84 169.484 33.08ZM186.197 44.32C183.69 44.32 181.637 43.7467 180.037 42.6C178.463 41.4267 177.583 39.84 177.397 37.84H180.277C180.41 39.0667 180.983 40.0667 181.997 40.84C183.037 41.5867 184.423 41.96 186.157 41.96C187.677 41.96 188.863 41.6 189.717 40.88C190.597 40.16 191.037 39.2667 191.037 38.2C191.037 37.4533 190.797 36.84 190.317 36.36C189.837 35.88 189.223 35.5067 188.477 35.24C187.757 34.9467 186.77 34.64 185.517 34.32C183.89 33.8933 182.57 33.4667 181.557 33.04C180.543 32.6133 179.677 31.9867 178.957 31.16C178.263 30.3067 177.917 29.1733 177.917 27.76C177.917 26.6933 178.237 25.7067 178.877 24.8C179.517 23.8933 180.423 23.1733 181.597 22.64C182.77 22.1067 184.103 21.84 185.597 21.84C187.943 21.84 189.837 22.44 191.277 23.64C192.717 24.8133 193.49 26.44 193.597 28.52H190.797C190.717 27.24 190.21 26.2133 189.277 25.44C188.37 24.64 187.117 24.24 185.517 24.24C184.103 24.24 182.957 24.5733 182.077 25.24C181.197 25.9067 180.757 26.7333 180.757 27.72C180.757 28.5733 181.01 29.28 181.517 29.84C182.05 30.3733 182.703 30.8 183.477 31.12C184.25 31.4133 185.29 31.7467 186.597 32.12C188.17 32.5467 189.423 32.96 190.357 33.36C191.29 33.76 192.09 34.3467 192.757 35.12C193.423 35.8933 193.77 36.92 193.797 38.2C193.797 39.3733 193.477 40.4267 192.837 41.36C192.197 42.2667 191.303 42.9867 190.157 43.52C189.01 44.0533 187.69 44.32 186.197 44.32ZM219.604 44.32C217.55 44.32 215.697 43.8667 214.044 42.96C212.417 42.0267 211.124 40.72 210.164 39.04C209.23 37.3333 208.764 35.3467 208.764 33.08C208.764 30.8133 209.244 28.84 210.204 27.16C211.164 25.4533 212.47 24.1467 214.124 23.24C215.777 22.3067 217.63 21.84 219.684 21.84C221.737 21.84 223.59 22.3067 225.244 23.24C226.924 24.1467 228.23 25.4533 229.164 27.16C230.124 28.84 230.604 30.8133 230.604 33.08C230.604 35.32 230.124 37.2933 229.164 39C228.204 40.7067 226.884 42.0267 225.204 42.96C223.524 43.8667 221.657 44.32 219.604 44.32ZM219.604 41.88C221.044 41.88 222.377 41.56 223.604 40.92C224.83 40.2533 225.817 39.2667 226.564 37.96C227.337 36.6267 227.724 35 227.724 33.08C227.724 31.16 227.35 29.5467 226.604 28.24C225.857 26.9067 224.87 25.92 223.644 25.28C222.417 24.6133 221.084 24.28 219.644 24.28C218.204 24.28 216.87 24.6133 215.644 25.28C214.417 25.92 213.43 26.9067 212.684 28.24C211.964 29.5467 211.604 31.16 211.604 33.08C211.604 35 211.964 36.6267 212.684 37.96C213.43 39.2667 214.404 40.2533 215.604 40.92C216.83 41.56 218.164 41.88 219.604 41.88ZM245.948 21.76C248.561 21.76 250.694 22.5733 252.348 24.2C254.001 25.8 254.828 28.1333 254.828 31.2V44H252.068V31.52C252.068 29.1467 251.468 27.3333 250.268 26.08C249.094 24.8267 247.481 24.2 245.428 24.2C243.321 24.2 241.641 24.8667 240.388 26.2C239.134 27.5333 238.508 29.4933 238.508 32.08V44H235.708V22.16H238.508V25.88C239.201 24.5467 240.201 23.5333 241.508 22.84C242.814 22.12 244.294 21.76 245.948 21.76ZM259.74 33.04C259.74 30.8 260.194 28.84 261.1 27.16C262.007 25.4533 263.247 24.1467 264.82 23.24C266.42 22.3067 268.22 21.84 270.22 21.84C272.14 21.84 273.874 22.3067 275.42 23.24C276.967 24.1733 278.1 25.3867 278.82 26.88V14.4H281.62V44H278.82V39.12C278.154 40.64 277.06 41.8933 275.54 42.88C274.02 43.84 272.234 44.32 270.18 44.32C268.18 44.32 266.38 43.8533 264.78 42.92C263.207 41.9867 261.967 40.6667 261.06 38.96C260.18 37.2533 259.74 35.28 259.74 33.04ZM278.82 33.08C278.82 31.32 278.46 29.7733 277.74 28.44C277.02 27.1067 276.034 26.08 274.78 25.36C273.554 24.64 272.194 24.28 270.7 24.28C269.154 24.28 267.767 24.6267 266.54 25.32C265.314 26.0133 264.34 27.0267 263.62 28.36C262.927 29.6667 262.58 31.2267 262.58 33.04C262.58 34.8267 262.927 36.4 263.62 37.76C264.34 39.0933 265.314 40.12 266.54 40.84C267.767 41.5333 269.154 41.88 270.7 41.88C272.194 41.88 273.554 41.52 274.78 40.8C276.034 40.08 277.02 39.0533 277.74 37.72C278.46 36.3867 278.82 34.84 278.82 33.08ZM307.773 31.96C307.773 32.92 307.746 33.6533 307.693 34.16H289.573C289.653 35.8133 290.053 37.2267 290.773 38.4C291.493 39.5733 292.439 40.4667 293.613 41.08C294.786 41.6667 296.066 41.96 297.453 41.96C299.266 41.96 300.786 41.52 302.013 40.64C303.266 39.76 304.093 38.5733 304.493 37.08H307.453C306.919 39.2133 305.773 40.96 304.013 42.32C302.279 43.6533 300.093 44.32 297.453 44.32C295.399 44.32 293.559 43.8667 291.933 42.96C290.306 42.0267 289.026 40.72 288.093 39.04C287.186 37.3333 286.733 35.3467 286.733 33.08C286.733 30.8133 287.186 28.8267 288.093 27.12C288.999 25.4133 290.266 24.1067 291.893 23.2C293.519 22.2933 295.373 21.84 297.453 21.84C299.533 21.84 301.346 22.2933 302.893 23.2C304.466 24.1067 305.666 25.3333 306.493 26.88C307.346 28.4 307.773 30.0933 307.773 31.96ZM304.933 31.88C304.959 30.2533 304.626 28.8667 303.933 27.72C303.266 26.5733 302.346 25.7067 301.173 25.12C299.999 24.5333 298.719 24.24 297.333 24.24C295.253 24.24 293.479 24.9067 292.013 26.24C290.546 27.5733 289.733 29.4533 289.573 31.88H304.933ZM322.592 33.04C322.592 30.8 323.032 28.84 323.912 27.16C324.819 25.4533 326.059 24.1467 327.632 23.24C329.232 22.3067 331.032 21.84 333.032 21.84C335.112 21.84 336.899 22.32 338.392 23.28C339.912 24.24 341.005 25.4667 341.672 26.96V22.16H344.472V44H341.672V39.16C340.979 40.6533 339.872 41.8933 338.352 42.88C336.859 43.84 335.072 44.32 332.992 44.32C331.019 44.32 329.232 43.8533 327.632 42.92C326.059 41.9867 324.819 40.6667 323.912 38.96C323.032 37.2533 322.592 35.28 322.592 33.04ZM341.672 33.08C341.672 31.32 341.312 29.7733 340.592 28.44C339.872 27.1067 338.885 26.08 337.632 25.36C336.405 24.64 335.045 24.28 333.552 24.28C332.005 24.28 330.619 24.6267 329.392 25.32C328.165 26.0133 327.192 27.0267 326.472 28.36C325.779 29.6667 325.432 31.2267 325.432 33.04C325.432 34.8267 325.779 36.4 326.472 37.76C327.192 39.0933 328.165 40.12 329.392 40.84C330.619 41.5333 332.005 41.88 333.552 41.88C335.045 41.88 336.405 41.52 337.632 40.8C338.885 40.08 339.872 39.0533 340.592 37.72C341.312 36.3867 341.672 34.84 341.672 33.08ZM354.504 24.52V38.08C354.504 39.4133 354.757 40.3333 355.264 40.84C355.771 41.3467 356.664 41.6 357.944 41.6H360.504V44H357.504C355.531 44 354.064 43.5467 353.104 42.64C352.144 41.7067 351.664 40.1867 351.664 38.08V24.52H348.624V22.16H351.664V16.68H354.504V22.16H360.504V24.52H354.504ZM384.042 22.16V44H381.242V40.16C380.602 41.52 379.615 42.56 378.282 43.28C376.949 44 375.455 44.36 373.802 44.36C371.189 44.36 369.055 43.56 367.402 41.96C365.749 40.3333 364.922 37.9867 364.922 34.92V22.16H367.682V34.6C367.682 36.9733 368.269 38.7867 369.442 40.04C370.642 41.2933 372.269 41.92 374.322 41.92C376.429 41.92 378.109 41.2533 379.362 39.92C380.615 38.5867 381.242 36.6267 381.242 34.04V22.16H384.042ZM399.994 44.32C397.941 44.32 396.088 43.8667 394.434 42.96C392.808 42.0267 391.514 40.72 390.554 39.04C389.621 37.3333 389.154 35.3467 389.154 33.08C389.154 30.8133 389.634 28.84 390.594 27.16C391.554 25.4533 392.861 24.1467 394.514 23.24C396.168 22.3067 398.021 21.84 400.074 21.84C402.128 21.84 403.981 22.3067 405.634 23.24C407.314 24.1467 408.621 25.4533 409.554 27.16C410.514 28.84 410.994 30.8133 410.994 33.08C410.994 35.32 410.514 37.2933 409.554 39C408.594 40.7067 407.274 42.0267 405.594 42.96C403.914 43.8667 402.048 44.32 399.994 44.32ZM399.994 41.88C401.434 41.88 402.768 41.56 403.994 40.92C405.221 40.2533 406.208 39.2667 406.954 37.96C407.728 36.6267 408.114 35 408.114 33.08C408.114 31.16 407.741 29.5467 406.994 28.24C406.248 26.9067 405.261 25.92 404.034 25.28C402.808 24.6133 401.474 24.28 400.034 24.28C398.594 24.28 397.261 24.6133 396.034 25.28C394.808 25.92 393.821 26.9067 393.074 28.24C392.354 29.5467 391.994 31.16 391.994 33.08C391.994 35 392.354 36.6267 393.074 37.96C393.821 39.2667 394.794 40.2533 395.994 40.92C397.221 41.56 398.554 41.88 399.994 41.88ZM453.075 21.76C455.635 21.76 457.715 22.5733 459.315 24.2C460.942 25.8 461.755 28.1333 461.755 31.2V44H458.995V31.52C458.995 29.1467 458.422 27.3333 457.275 26.08C456.128 24.8267 454.568 24.2 452.595 24.2C450.542 24.2 448.902 24.88 447.675 26.24C446.448 27.6 445.835 29.5733 445.835 32.16V44H443.075V31.52C443.075 29.1467 442.502 27.3333 441.355 26.08C440.208 24.8267 438.635 24.2 436.635 24.2C434.582 24.2 432.942 24.88 431.715 26.24C430.488 27.6 429.875 29.5733 429.875 32.16V44H427.075V22.16H429.875V25.92C430.568 24.56 431.555 23.5333 432.835 22.84C434.115 22.12 435.542 21.76 437.115 21.76C439.008 21.76 440.662 22.2133 442.075 23.12C443.515 24.0267 444.555 25.36 445.195 27.12C445.782 25.3867 446.782 24.0667 448.195 23.16C449.635 22.2267 451.262 21.76 453.075 21.76ZM486.893 22.16V44H484.093V40.16C483.453 41.52 482.467 42.56 481.133 43.28C479.8 44 478.307 44.36 476.653 44.36C474.04 44.36 471.907 43.56 470.253 41.96C468.6 40.3333 467.773 37.9867 467.773 34.92V22.16H470.533V34.6C470.533 36.9733 471.12 38.7867 472.293 40.04C473.493 41.2933 475.12 41.92 477.173 41.92C479.28 41.92 480.96 41.2533 482.213 39.92C483.467 38.5867 484.093 36.6267 484.093 34.04V22.16H486.893ZM492.006 33.04C492.006 30.8 492.459 28.84 493.366 27.16C494.273 25.4533 495.513 24.1467 497.086 23.24C498.686 22.3067 500.486 21.84 502.486 21.84C504.406 21.84 506.139 22.3067 507.686 23.24C509.233 24.1733 510.366 25.3867 511.086 26.88V14.4H513.886V44H511.086V39.12C510.419 40.64 509.326 41.8933 507.806 42.88C506.286 43.84 504.499 44.32 502.446 44.32C500.446 44.32 498.646 43.8533 497.046 42.92C495.473 41.9867 494.233 40.6667 493.326 38.96C492.446 37.2533 492.006 35.28 492.006 33.04ZM511.086 33.08C511.086 31.32 510.726 29.7733 510.006 28.44C509.286 27.1067 508.299 26.08 507.046 25.36C505.819 24.64 504.459 24.28 502.966 24.28C501.419 24.28 500.033 24.6267 498.806 25.32C497.579 26.0133 496.606 27.0267 495.886 28.36C495.193 29.6667 494.846 31.2267 494.846 33.04C494.846 34.8267 495.193 36.4 495.886 37.76C496.606 39.0933 497.579 40.12 498.806 40.84C500.033 41.5333 501.419 41.88 502.966 41.88C504.459 41.88 505.819 41.52 507.046 40.8C508.299 40.08 509.286 39.0533 510.006 37.72C510.726 36.3867 511.086 34.84 511.086 33.08ZM518.998 33.04C518.998 30.8 519.438 28.84 520.318 27.16C521.225 25.4533 522.465 24.1467 524.038 23.24C525.638 22.3067 527.438 21.84 529.438 21.84C531.518 21.84 533.305 22.32 534.798 23.28C536.318 24.24 537.411 25.4667 538.078 26.96V22.16H540.878V44H538.078V39.16C537.385 40.6533 536.278 41.8933 534.758 42.88C533.265 43.84 531.478 44.32 529.398 44.32C527.425 44.32 525.638 43.8533 524.038 42.92C522.465 41.9867 521.225 40.6667 520.318 38.96C519.438 37.2533 518.998 35.28 518.998 33.04ZM538.078 33.08C538.078 31.32 537.718 29.7733 536.998 28.44C536.278 27.1067 535.291 26.08 534.038 25.36C532.811 24.64 531.451 24.28 529.958 24.28C528.411 24.28 527.025 24.6267 525.798 25.32C524.571 26.0133 523.598 27.0267 522.878 28.36C522.185 29.6667 521.838 31.2267 521.838 33.04C521.838 34.8267 522.185 36.4 522.878 37.76C523.598 39.0933 524.571 40.12 525.798 40.84C527.025 41.5333 528.411 41.88 529.958 41.88C531.451 41.88 532.811 41.52 534.038 40.8C535.291 40.08 536.278 39.0533 536.998 37.72C537.718 36.3867 538.078 34.84 538.078 33.08ZM557.51 21.76C560.124 21.76 562.257 22.5733 563.91 24.2C565.564 25.8 566.39 28.1333 566.39 31.2V44H563.63V31.52C563.63 29.1467 563.03 27.3333 561.83 26.08C560.657 24.8267 559.044 24.2 556.99 24.2C554.884 24.2 553.204 24.8667 551.95 26.2C550.697 27.5333 550.07 29.4933 550.07 32.08V44H547.27V22.16H550.07V25.88C550.764 24.5467 551.764 23.5333 553.07 22.84C554.377 22.12 555.857 21.76 557.51 21.76ZM571.303 33.04C571.303 30.8 571.756 28.84 572.663 27.16C573.569 25.4533 574.809 24.1467 576.383 23.24C577.983 22.3067 579.783 21.84 581.783 21.84C583.703 21.84 585.436 22.3067 586.983 23.24C588.529 24.1733 589.663 25.3867 590.383 26.88V14.4H593.183V44H590.383V39.12C589.716 40.64 588.623 41.8933 587.103 42.88C585.583 43.84 583.796 44.32 581.743 44.32C579.743 44.32 577.943 43.8533 576.343 42.92C574.769 41.9867 573.529 40.6667 572.623 38.96C571.743 37.2533 571.303 35.28 571.303 33.04ZM590.383 33.08C590.383 31.32 590.023 29.7733 589.303 28.44C588.583 27.1067 587.596 26.08 586.343 25.36C585.116 24.64 583.756 24.28 582.263 24.28C580.716 24.28 579.329 24.6267 578.103 25.32C576.876 26.0133 575.903 27.0267 575.183 28.36C574.489 29.6667 574.143 31.2267 574.143 33.04C574.143 34.8267 574.489 36.4 575.183 37.76C575.903 39.0933 576.876 40.12 578.103 40.84C579.329 41.5333 580.716 41.88 582.263 41.88C583.756 41.88 585.116 41.52 586.343 40.8C587.596 40.08 588.583 39.0533 589.303 37.72C590.023 36.3867 590.383 34.84 590.383 33.08ZM609.135 44.32C607.082 44.32 605.228 43.8667 603.575 42.96C601.948 42.0267 600.655 40.72 599.695 39.04C598.762 37.3333 598.295 35.3467 598.295 33.08C598.295 30.8133 598.775 28.84 599.735 27.16C600.695 25.4533 602.002 24.1467 603.655 23.24C605.308 22.3067 607.162 21.84 609.215 21.84C611.268 21.84 613.122 22.3067 614.775 23.24C616.455 24.1467 617.762 25.4533 618.695 27.16C619.655 28.84 620.135 30.8133 620.135 33.08C620.135 35.32 619.655 37.2933 618.695 39C617.735 40.7067 616.415 42.0267 614.735 42.96C613.055 43.8667 611.188 44.32 609.135 44.32ZM609.135 41.88C610.575 41.88 611.908 41.56 613.135 40.92C614.362 40.2533 615.348 39.2667 616.095 37.96C616.868 36.6267 617.255 35 617.255 33.08C617.255 31.16 616.882 29.5467 616.135 28.24C615.388 26.9067 614.402 25.92 613.175 25.28C611.948 24.6133 610.615 24.28 609.175 24.28C607.735 24.28 606.402 24.6133 605.175 25.28C603.948 25.92 602.962 26.9067 602.215 28.24C601.495 29.5467 601.135 31.16 601.135 33.08C601.135 35 601.495 36.6267 602.215 37.96C602.962 39.2667 603.935 40.2533 605.135 40.92C606.362 41.56 607.695 41.88 609.135 41.88ZM634.936 33.04C634.936 30.8 635.376 28.84 636.256 27.16C637.162 25.4533 638.402 24.1467 639.976 23.24C641.576 22.3067 643.376 21.84 645.376 21.84C647.456 21.84 649.242 22.32 650.736 23.28C652.256 24.24 653.349 25.4667 654.016 26.96V22.16H656.816V44H654.016V39.16C653.322 40.6533 652.216 41.8933 650.696 42.88C649.202 43.84 647.416 44.32 645.336 44.32C643.362 44.32 641.576 43.8533 639.976 42.92C638.402 41.9867 637.162 40.6667 636.256 38.96C635.376 37.2533 634.936 35.28 634.936 33.04ZM654.016 33.08C654.016 31.32 653.656 29.7733 652.936 28.44C652.216 27.1067 651.229 26.08 649.976 25.36C648.749 24.64 647.389 24.28 645.896 24.28C644.349 24.28 642.962 24.6267 641.736 25.32C640.509 26.0133 639.536 27.0267 638.816 28.36C638.122 29.6667 637.776 31.2267 637.776 33.04C637.776 34.8267 638.122 36.4 638.816 37.76C639.536 39.0933 640.509 40.12 641.736 40.84C642.962 41.5333 644.349 41.88 645.896 41.88C647.389 41.88 648.749 41.52 649.976 40.8C651.229 40.08 652.216 39.0533 652.936 37.72C653.656 36.3867 654.016 34.84 654.016 33.08ZM681.944 41.28L689.304 22.16H692.264L683.504 44H680.344L671.584 22.16H674.584L681.944 41.28ZM697.459 18.04C696.899 18.04 696.419 17.84 696.019 17.44C695.619 17.04 695.419 16.5467 695.419 15.96C695.419 15.3733 695.619 14.8933 696.019 14.52C696.419 14.12 696.899 13.92 697.459 13.92C698.019 13.92 698.499 14.12 698.899 14.52C699.299 14.8933 699.499 15.3733 699.499 15.96C699.499 16.5467 699.299 17.04 698.899 17.44C698.499 17.84 698.019 18.04 697.459 18.04ZM698.859 22.16V44H696.059V22.16H698.859ZM703.92 33.04C703.92 30.8 704.373 28.84 705.28 27.16C706.187 25.4533 707.427 24.1467 709 23.24C710.6 22.3067 712.4 21.84 714.4 21.84C716.32 21.84 718.053 22.3067 719.6 23.24C721.147 24.1733 722.28 25.3867 723 26.88V14.4H725.8V44H723V39.12C722.333 40.64 721.24 41.8933 719.72 42.88C718.2 43.84 716.413 44.32 714.36 44.32C712.36 44.32 710.56 43.8533 708.96 42.92C707.387 41.9867 706.147 40.6667 705.24 38.96C704.36 37.2533 703.92 35.28 703.92 33.04ZM723 33.08C723 31.32 722.64 29.7733 721.92 28.44C721.2 27.1067 720.213 26.08 718.96 25.36C717.733 24.64 716.373 24.28 714.88 24.28C713.333 24.28 711.947 24.6267 710.72 25.32C709.493 26.0133 708.52 27.0267 707.8 28.36C707.107 29.6667 706.76 31.2267 706.76 33.04C706.76 34.8267 707.107 36.4 707.8 37.76C708.52 39.0933 709.493 40.12 710.72 40.84C711.947 41.5333 713.333 41.88 714.88 41.88C716.373 41.88 717.733 41.52 718.96 40.8C720.213 40.08 721.2 39.0533 721.92 37.72C722.64 36.3867 723 34.84 723 33.08ZM730.912 33.04C730.912 30.8 731.352 28.84 732.232 27.16C733.139 25.4533 734.379 24.1467 735.952 23.24C737.552 22.3067 739.352 21.84 741.352 21.84C743.432 21.84 745.219 22.32 746.712 23.28C748.232 24.24 749.326 25.4667 749.992 26.96V22.16H752.792V44H749.992V39.16C749.299 40.6533 748.192 41.8933 746.672 42.88C745.179 43.84 743.392 44.32 741.312 44.32C739.339 44.32 737.552 43.8533 735.952 42.92C734.379 41.9867 733.139 40.6667 732.232 38.96C731.352 37.2533 730.912 35.28 730.912 33.04ZM749.992 33.08C749.992 31.32 749.632 29.7733 748.912 28.44C748.192 27.1067 747.206 26.08 745.952 25.36C744.726 24.64 743.366 24.28 741.872 24.28C740.326 24.28 738.939 24.6267 737.712 25.32C736.486 26.0133 735.512 27.0267 734.792 28.36C734.099 29.6667 733.752 31.2267 733.752 33.04C733.752 34.8267 734.099 36.4 734.792 37.76C735.512 39.0933 736.486 40.12 737.712 40.84C738.939 41.5333 740.326 41.88 741.872 41.88C743.366 41.88 744.726 41.52 745.952 40.8C747.206 40.08 748.192 39.0533 748.912 37.72C749.632 36.3867 749.992 34.84 749.992 33.08ZM219.486 93.04C219.486 90.8 219.94 88.84 220.846 87.16C221.753 85.4533 222.993 84.1467 224.566 83.24C226.166 82.3067 227.966 81.84 229.966 81.84C231.886 81.84 233.62 82.3067 235.166 83.24C236.713 84.1733 237.846 85.3867 238.566 86.88V74.4H241.366V104H238.566V99.12C237.9 100.64 236.806 101.893 235.286 102.88C233.766 103.84 231.98 104.32 229.926 104.32C227.926 104.32 226.126 103.853 224.526 102.92C222.953 101.987 221.713 100.667 220.806 98.96C219.926 97.2533 219.486 95.28 219.486 93.04ZM238.566 93.08C238.566 91.32 238.206 89.7733 237.486 88.44C236.766 87.1067 235.78 86.08 234.526 85.36C233.3 84.64 231.94 84.28 230.446 84.28C228.9 84.28 227.513 84.6267 226.286 85.32C225.06 86.0133 224.086 87.0267 223.366 88.36C222.673 89.6667 222.326 91.2267 222.326 93.04C222.326 94.8267 222.673 96.4 223.366 97.76C224.086 99.0933 225.06 100.12 226.286 100.84C227.513 101.533 228.9 101.88 230.446 101.88C231.94 101.88 233.3 101.52 234.526 100.8C235.78 100.08 236.766 99.0533 237.486 97.72C238.206 96.3867 238.566 94.84 238.566 93.08ZM257.319 104.32C255.265 104.32 253.412 103.867 251.759 102.96C250.132 102.027 248.839 100.72 247.879 99.04C246.945 97.3333 246.479 95.3467 246.479 93.08C246.479 90.8133 246.959 88.84 247.919 87.16C248.879 85.4533 250.185 84.1467 251.839 83.24C253.492 82.3067 255.345 81.84 257.399 81.84C259.452 81.84 261.305 82.3067 262.959 83.24C264.639 84.1467 265.945 85.4533 266.879 87.16C267.839 88.84 268.319 90.8133 268.319 93.08C268.319 95.32 267.839 97.2933 266.879 99C265.919 100.707 264.599 102.027 262.919 102.96C261.239 103.867 259.372 104.32 257.319 104.32ZM257.319 101.88C258.759 101.88 260.092 101.56 261.319 100.92C262.545 100.253 263.532 99.2667 264.279 97.96C265.052 96.6267 265.439 95 265.439 93.08C265.439 91.16 265.065 89.5467 264.319 88.24C263.572 86.9067 262.585 85.92 261.359 85.28C260.132 84.6133 258.799 84.28 257.359 84.28C255.919 84.28 254.585 84.6133 253.359 85.28C252.132 85.92 251.145 86.9067 250.399 88.24C249.679 89.5467 249.319 91.16 249.319 93.08C249.319 95 249.679 96.6267 250.399 97.96C251.145 99.2667 252.119 100.253 253.319 100.92C254.545 101.56 255.879 101.88 257.319 101.88ZM280.943 104.32C278.436 104.32 276.383 103.747 274.783 102.6C273.209 101.427 272.329 99.84 272.143 97.84H275.023C275.156 99.0667 275.729 100.067 276.743 100.84C277.783 101.587 279.169 101.96 280.903 101.96C282.423 101.96 283.609 101.6 284.463 100.88C285.343 100.16 285.783 99.2667 285.783 98.2C285.783 97.4533 285.543 96.84 285.063 96.36C284.583 95.88 283.969 95.5067 283.223 95.24C282.503 94.9467 281.516 94.64 280.263 94.32C278.636 93.8933 277.316 93.4667 276.303 93.04C275.289 92.6133 274.423 91.9867 273.703 91.16C273.009 90.3067 272.663 89.1733 272.663 87.76C272.663 86.6933 272.983 85.7067 273.623 84.8C274.263 83.8933 275.169 83.1733 276.343 82.64C277.516 82.1067 278.849 81.84 280.343 81.84C282.689 81.84 284.583 82.44 286.023 83.64C287.463 84.8133 288.236 86.44 288.343 88.52H285.543C285.463 87.24 284.956 86.2133 284.023 85.44C283.116 84.64 281.863 84.24 280.263 84.24C278.849 84.24 277.703 84.5733 276.823 85.24C275.943 85.9067 275.503 86.7333 275.503 87.72C275.503 88.5733 275.756 89.28 276.263 89.84C276.796 90.3733 277.449 90.8 278.223 91.12C278.996 91.4133 280.036 91.7467 281.343 92.12C282.916 92.5467 284.169 92.96 285.103 93.36C286.036 93.76 286.836 94.3467 287.503 95.12C288.169 95.8933 288.516 96.92 288.543 98.2C288.543 99.3733 288.223 100.427 287.583 101.36C286.943 102.267 286.049 102.987 284.903 103.52C283.756 104.053 282.436 104.32 280.943 104.32ZM330.79 81.76C333.35 81.76 335.43 82.5733 337.03 84.2C338.657 85.8 339.47 88.1333 339.47 91.2V104H336.71V91.52C336.71 89.1467 336.137 87.3333 334.99 86.08C333.843 84.8267 332.283 84.2 330.31 84.2C328.257 84.2 326.617 84.88 325.39 86.24C324.163 87.6 323.55 89.5733 323.55 92.16V104H320.79V91.52C320.79 89.1467 320.217 87.3333 319.07 86.08C317.923 84.8267 316.35 84.2 314.35 84.2C312.297 84.2 310.657 84.88 309.43 86.24C308.203 87.6 307.59 89.5733 307.59 92.16V104H304.79V82.16H307.59V85.92C308.283 84.56 309.27 83.5333 310.55 82.84C311.83 82.12 313.257 81.76 314.83 81.76C316.723 81.76 318.377 82.2133 319.79 83.12C321.23 84.0267 322.27 85.36 322.91 87.12C323.497 85.3867 324.497 84.0667 325.91 83.16C327.35 82.2267 328.977 81.76 330.79 81.76ZM365.448 91.96C365.448 92.92 365.422 93.6533 365.368 94.16H347.248C347.328 95.8133 347.728 97.2267 348.448 98.4C349.168 99.5733 350.115 100.467 351.288 101.08C352.462 101.667 353.742 101.96 355.128 101.96C356.942 101.96 358.462 101.52 359.688 100.64C360.942 99.76 361.768 98.5733 362.168 97.08H365.128C364.595 99.2133 363.448 100.96 361.688 102.32C359.955 103.653 357.768 104.32 355.128 104.32C353.075 104.32 351.235 103.867 349.608 102.96C347.982 102.027 346.702 100.72 345.768 99.04C344.862 97.3333 344.408 95.3467 344.408 93.08C344.408 90.8133 344.862 88.8267 345.768 87.12C346.675 85.4133 347.942 84.1067 349.568 83.2C351.195 82.2933 353.048 81.84 355.128 81.84C357.208 81.84 359.022 82.2933 360.568 83.2C362.142 84.1067 363.342 85.3333 364.168 86.88C365.022 88.4 365.448 90.0933 365.448 91.96ZM362.608 91.88C362.635 90.2533 362.302 88.8667 361.608 87.72C360.942 86.5733 360.022 85.7067 358.848 85.12C357.675 84.5333 356.395 84.24 355.008 84.24C352.928 84.24 351.155 84.9067 349.688 86.24C348.222 87.5733 347.408 89.4533 347.248 91.88H362.608ZM389.491 82.16V104H386.691V100.16C386.051 101.52 385.064 102.56 383.731 103.28C382.398 104 380.904 104.36 379.251 104.36C376.638 104.36 374.504 103.56 372.851 101.96C371.198 100.333 370.371 97.9867 370.371 94.92V82.16H373.131V94.6C373.131 96.9733 373.718 98.7867 374.891 100.04C376.091 101.293 377.718 101.92 379.771 101.92C381.878 101.92 383.558 101.253 384.811 99.92C386.064 98.5867 386.691 96.6267 386.691 94.04V82.16H389.491ZM403.404 104.32C400.897 104.32 398.844 103.747 397.244 102.6C395.67 101.427 394.79 99.84 394.604 97.84H397.484C397.617 99.0667 398.19 100.067 399.204 100.84C400.244 101.587 401.63 101.96 403.364 101.96C404.884 101.96 406.07 101.6 406.924 100.88C407.804 100.16 408.244 99.2667 408.244 98.2C408.244 97.4533 408.004 96.84 407.524 96.36C407.044 95.88 406.43 95.5067 405.684 95.24C404.964 94.9467 403.977 94.64 402.724 94.32C401.097 93.8933 399.777 93.4667 398.764 93.04C397.75 92.6133 396.884 91.9867 396.164 91.16C395.47 90.3067 395.124 89.1733 395.124 87.76C395.124 86.6933 395.444 85.7067 396.084 84.8C396.724 83.8933 397.63 83.1733 398.804 82.64C399.977 82.1067 401.31 81.84 402.804 81.84C405.15 81.84 407.044 82.44 408.484 83.64C409.924 84.8133 410.697 86.44 410.804 88.52H408.004C407.924 87.24 407.417 86.2133 406.484 85.44C405.577 84.64 404.324 84.24 402.724 84.24C401.31 84.24 400.164 84.5733 399.284 85.24C398.404 85.9067 397.964 86.7333 397.964 87.72C397.964 88.5733 398.217 89.28 398.724 89.84C399.257 90.3733 399.91 90.8 400.684 91.12C401.457 91.4133 402.497 91.7467 403.804 92.12C405.377 92.5467 406.63 92.96 407.564 93.36C408.497 93.76 409.297 94.3467 409.964 95.12C410.63 95.8933 410.977 96.92 411.004 98.2C411.004 99.3733 410.684 100.427 410.044 101.36C409.404 102.267 408.51 102.987 407.364 103.52C406.217 104.053 404.897 104.32 403.404 104.32ZM430.011 86.96C430.704 85.4933 431.797 84.28 433.291 83.32C434.811 82.3333 436.611 81.84 438.691 81.84C440.664 81.84 442.437 82.3067 444.011 83.24C445.611 84.1467 446.851 85.4533 447.731 87.16C448.637 88.84 449.091 90.8 449.091 93.04C449.091 95.28 448.637 97.2533 447.731 98.96C446.851 100.667 445.611 101.987 444.011 102.92C442.437 103.853 440.664 104.32 438.691 104.32C436.637 104.32 434.851 103.84 433.331 102.88C431.811 101.893 430.704 100.667 430.011 99.2V114.32H427.251V82.16H430.011V86.96ZM446.251 93.04C446.251 91.2267 445.891 89.6667 445.171 88.36C444.477 87.0267 443.517 86.0133 442.291 85.32C441.064 84.6267 439.677 84.28 438.131 84.28C436.637 84.28 435.264 84.64 434.011 85.36C432.784 86.08 431.811 87.1067 431.091 88.44C430.371 89.7733 430.011 91.32 430.011 93.08C430.011 94.84 430.371 96.3867 431.091 97.72C431.811 99.0533 432.784 100.08 434.011 100.8C435.264 101.52 436.637 101.88 438.131 101.88C439.677 101.88 441.064 101.533 442.291 100.84C443.517 100.12 444.477 99.0933 445.171 97.76C445.891 96.4 446.251 94.8267 446.251 93.04ZM452.963 93.04C452.963 90.8 453.403 88.84 454.283 87.16C455.19 85.4533 456.43 84.1467 458.003 83.24C459.603 82.3067 461.403 81.84 463.403 81.84C465.483 81.84 467.27 82.32 468.763 83.28C470.283 84.24 471.376 85.4667 472.043 86.96V82.16H474.843V104H472.043V99.16C471.35 100.653 470.243 101.893 468.723 102.88C467.23 103.84 465.443 104.32 463.363 104.32C461.39 104.32 459.603 103.853 458.003 102.92C456.43 101.987 455.19 100.667 454.283 98.96C453.403 97.2533 452.963 95.28 452.963 93.04ZM472.043 93.08C472.043 91.32 471.683 89.7733 470.963 88.44C470.243 87.1067 469.256 86.08 468.003 85.36C466.776 84.64 465.416 84.28 463.923 84.28C462.376 84.28 460.99 84.6267 459.763 85.32C458.536 86.0133 457.563 87.0267 456.843 88.36C456.15 89.6667 455.803 91.2267 455.803 93.04C455.803 94.8267 456.15 96.4 456.843 97.76C457.563 99.0933 458.536 100.12 459.763 100.84C460.99 101.533 462.376 101.88 463.923 101.88C465.416 101.88 466.776 101.52 468.003 100.8C469.256 100.08 470.243 99.0533 470.963 97.72C471.683 96.3867 472.043 94.84 472.043 93.08ZM479.955 93.08C479.955 90.8133 480.408 88.84 481.315 87.16C482.222 85.4533 483.475 84.1467 485.075 83.24C486.675 82.3067 488.502 81.84 490.555 81.84C493.248 81.84 495.462 82.5067 497.195 83.84C498.955 85.1733 500.088 86.9867 500.595 89.28H497.595C497.222 87.7067 496.408 86.48 495.155 85.6C493.928 84.6933 492.395 84.24 490.555 84.24C489.088 84.24 487.768 84.5733 486.595 85.24C485.422 85.9067 484.488 86.9067 483.795 88.24C483.128 89.5467 482.795 91.16 482.795 93.08C482.795 95 483.128 96.6267 483.795 97.96C484.488 99.2933 485.422 100.293 486.595 100.96C487.768 101.627 489.088 101.96 490.555 101.96C492.395 101.96 493.928 101.52 495.155 100.64C496.408 99.7333 497.222 98.48 497.595 96.88H500.595C500.088 99.12 498.955 100.92 497.195 102.28C495.435 103.64 493.222 104.32 490.555 104.32C488.502 104.32 486.675 103.867 485.075 102.96C483.475 102.027 482.222 100.72 481.315 99.04C480.408 97.3333 479.955 95.3467 479.955 93.08ZM507.166 78.04C506.606 78.04 506.126 77.84 505.726 77.44C505.326 77.04 505.126 76.5467 505.126 75.96C505.126 75.3733 505.326 74.8933 505.726 74.52C506.126 74.12 506.606 73.92 507.166 73.92C507.726 73.92 508.206 74.12 508.606 74.52C509.006 74.8933 509.206 75.3733 509.206 75.96C509.206 76.5467 509.006 77.04 508.606 77.44C508.206 77.84 507.726 78.04 507.166 78.04ZM508.566 82.16V104H505.766V82.16H508.566ZM534.667 91.96C534.667 92.92 534.64 93.6533 534.587 94.16H516.467C516.547 95.8133 516.947 97.2267 517.667 98.4C518.387 99.5733 519.334 100.467 520.507 101.08C521.68 101.667 522.96 101.96 524.347 101.96C526.16 101.96 527.68 101.52 528.907 100.64C530.16 99.76 530.987 98.5733 531.387 97.08H534.347C533.814 99.2133 532.667 100.96 530.907 102.32C529.174 103.653 526.987 104.32 524.347 104.32C522.294 104.32 520.454 103.867 518.827 102.96C517.2 102.027 515.92 100.72 514.987 99.04C514.08 97.3333 513.627 95.3467 513.627 93.08C513.627 90.8133 514.08 88.8267 514.987 87.12C515.894 85.4133 517.16 84.1067 518.787 83.2C520.414 82.2933 522.267 81.84 524.347 81.84C526.427 81.84 528.24 82.2933 529.787 83.2C531.36 84.1067 532.56 85.3333 533.387 86.88C534.24 88.4 534.667 90.0933 534.667 91.96ZM531.827 91.88C531.854 90.2533 531.52 88.8667 530.827 87.72C530.16 86.5733 529.24 85.7067 528.067 85.12C526.894 84.5333 525.614 84.24 524.227 84.24C522.147 84.24 520.374 84.9067 518.907 86.24C517.44 87.5733 516.627 89.4533 516.467 91.88H531.827ZM550.03 81.76C552.643 81.76 554.777 82.5733 556.43 84.2C558.083 85.8 558.91 88.1333 558.91 91.2V104H556.15V91.52C556.15 89.1467 555.55 87.3333 554.35 86.08C553.177 84.8267 551.563 84.2 549.51 84.2C547.403 84.2 545.723 84.8667 544.47 86.2C543.217 87.5333 542.59 89.4933 542.59 92.08V104H539.79V82.16H542.59V85.88C543.283 84.5467 544.283 83.5333 545.59 82.84C546.897 82.12 548.377 81.76 550.03 81.76ZM568.742 84.52V98.08C568.742 99.4133 568.996 100.333 569.502 100.84C570.009 101.347 570.902 101.6 572.182 101.6H574.742V104H571.742C569.769 104 568.302 103.547 567.342 102.64C566.382 101.707 565.902 100.187 565.902 98.08V84.52H562.862V82.16H565.902V76.68H568.742V82.16H574.742V84.52H568.742ZM599.12 91.96C599.12 92.92 599.093 93.6533 599.04 94.16H580.92C581 95.8133 581.4 97.2267 582.12 98.4C582.84 99.5733 583.787 100.467 584.96 101.08C586.133 101.667 587.413 101.96 588.8 101.96C590.613 101.96 592.133 101.52 593.36 100.64C594.613 99.76 595.44 98.5733 595.84 97.08H598.8C598.267 99.2133 597.12 100.96 595.36 102.32C593.627 103.653 591.44 104.32 588.8 104.32C586.747 104.32 584.907 103.867 583.28 102.96C581.653 102.027 580.373 100.72 579.44 99.04C578.533 97.3333 578.08 95.3467 578.08 93.08C578.08 90.8133 578.533 88.8267 579.44 87.12C580.347 85.4133 581.613 84.1067 583.24 83.2C584.867 82.2933 586.72 81.84 588.8 81.84C590.88 81.84 592.693 82.2933 594.24 83.2C595.813 84.1067 597.013 85.3333 597.84 86.88C598.693 88.4 599.12 90.0933 599.12 91.96ZM596.28 91.88C596.307 90.2533 595.973 88.8667 595.28 87.72C594.613 86.5733 593.693 85.7067 592.52 85.12C591.347 84.5333 590.067 84.24 588.68 84.24C586.6 84.24 584.827 84.9067 583.36 86.24C581.893 87.5733 581.08 89.4533 580.92 91.88H596.28ZM611.763 104.32C609.256 104.32 607.203 103.747 605.603 102.6C604.03 101.427 603.15 99.84 602.963 97.84H605.843C605.976 99.0667 606.55 100.067 607.563 100.84C608.603 101.587 609.99 101.96 611.723 101.96C613.243 101.96 614.43 101.6 615.283 100.88C616.163 100.16 616.603 99.2667 616.603 98.2C616.603 97.4533 616.363 96.84 615.883 96.36C615.403 95.88 614.79 95.5067 614.043 95.24C613.323 94.9467 612.336 94.64 611.083 94.32C609.456 93.8933 608.136 93.4667 607.123 93.04C606.11 92.6133 605.243 91.9867 604.523 91.16C603.83 90.3067 603.483 89.1733 603.483 87.76C603.483 86.6933 603.803 85.7067 604.443 84.8C605.083 83.8933 605.99 83.1733 607.163 82.64C608.336 82.1067 609.67 81.84 611.163 81.84C613.51 81.84 615.403 82.44 616.843 83.64C618.283 84.8133 619.056 86.44 619.163 88.52H616.363C616.283 87.24 615.776 86.2133 614.843 85.44C613.936 84.64 612.683 84.24 611.083 84.24C609.67 84.24 608.523 84.5733 607.643 85.24C606.763 85.9067 606.323 86.7333 606.323 87.72C606.323 88.5733 606.576 89.28 607.083 89.84C607.616 90.3733 608.27 90.8 609.043 91.12C609.816 91.4133 610.856 91.7467 612.163 92.12C613.736 92.5467 614.99 92.96 615.923 93.36C616.856 93.76 617.656 94.3467 618.323 95.12C618.99 95.8933 619.336 96.92 619.363 98.2C619.363 99.3733 619.043 100.427 618.403 101.36C617.763 102.267 616.87 102.987 615.723 103.52C614.576 104.053 613.256 104.32 611.763 104.32Z" fill="url(#paint0_linear_172_2)"/>
<rect y="30" width="72" height="3" rx="1.5" fill="url(#paint1_linear_172_2)"/>
<rect x="768" y="29" width="72" height="4" rx="2" fill="url(#paint2_linear_172_2)"/>
<defs>
<linearGradient id="paint0_linear_172_2" x1="116.535" y1="60" x2="615.22" y2="60" gradientUnits="userSpaceOnUse">
<stop stop-color="#0094C7"/>
<stop offset="1" stop-color="#43ACA3"/>
</linearGradient>
<linearGradient id="paint1_linear_172_2" x1="0" y1="31.5" x2="72" y2="31.5" gradientUnits="userSpaceOnUse">
<stop stop-color="#0094C7"/>
<stop offset="1" stop-color="#43ACA3"/>
</linearGradient>
<linearGradient id="paint2_linear_172_2" x1="768" y1="31" x2="840" y2="31" gradientUnits="userSpaceOnUse">
<stop stop-color="#0094C7"/>
<stop offset="1" stop-color="#43ACA3"/>
</linearGradient>
</defs>
</svg>
